<svg width="169" height="36" fill="none" xmlns="http://www.w3.org/2000/svg">
  <path d="M44.836 10.968v15.264c0 .492.276.768.768.768h1.872c.492 0 .768-.276.768-.768v-6.036h5.472c.492 0 .768-.276.768-.768v-1.392c0-.492-.276-.768-.768-.768h-5.472v-4.14h6.048c.492 0 .768-.276.768-.768v-1.392c0-.492-.276-.768-.768-.768h-8.688c-.492 0-.768.276-.768.768zM56.366 20.784c0 3.636 2.952 6.504 6.9 6.504 3.96 0 6.9-2.868 6.9-6.504 0-3.636-2.94-6.504-6.9-6.504-3.948 0-6.9 2.868-6.9 6.504zm3.312 0c0-2.016 1.56-3.588 3.588-3.588 2.04 0 3.6 1.572 3.6 3.588 0 2.028-1.56 3.588-3.6 3.588-2.028 0-3.588-1.56-3.588-3.588zM78.737 17.196c.156 0 .324.012.504.036.528.084.84-.108.888-.624l.108-1.392c.036-.444-.144-.804-.588-.888a2.208 2.208 0 00-.492-.048c-1.428 0-2.532.756-3.324 1.812v-.756c0-.492-.276-.768-.768-.768h-1.764c-.492 0-.768.276-.768.768v10.896c0 .492.276.768.768.768h1.764c.492 0 .768-.276.768-.768v-5.82c0-1.932 1.32-3.216 2.904-3.216zM97.316 14.28c-1.692 0-3.144.972-3.996 2.508-.804-1.56-2.352-2.508-4.176-2.508-1.356 0-2.556.624-3.42 1.656v-.6c0-.492-.276-.768-.768-.768h-1.764c-.492 0-.768.276-.768.768v10.896c0 .492.276.768.768.768h1.764c.492 0 .768-.276.768-.768v-6c0-1.872 1.296-3.036 2.7-3.036 1.272 0 2.172 1.08 2.172 2.46v6.576c0 .492.276.768.768.768h1.764c.492 0 .768-.276.768-.768v-6c0-1.872 1.296-3.036 2.7-3.036 1.272 0 2.172 1.08 2.172 2.46v6.576c0 .492.276.768.768.768h1.764c.492 0 .768-.276.768-.768v-6.924c0-3.012-2.076-5.028-4.752-5.028zM105.318 23.748l-.372.42c-.312.348-.348.72-.024 1.08 1.176 1.332 2.544 2.04 4.188 2.04 3.084 0 4.92-1.644 4.92-3.84 0-2.1-1.32-3.42-4.2-4.008-1.392-.288-1.98-.828-1.98-1.488 0-.636.648-1.032 1.428-1.032.612 0 1.068.24 1.344.684.228.384.432.6.876.6h1.584c.54 0 .84-.336.672-.852-.624-1.884-2.184-3.072-4.644-3.072-2.7 0-4.488 1.536-4.488 3.624 0 2.064 1.344 3.432 4.044 3.984 1.608.324 2.136.78 2.136 1.524 0 .756-.684 1.236-1.824 1.236-.984 0-1.8-.336-2.58-.96-.396-.324-.756-.312-1.08.06zM129.789 20.784c0-3.636-2.532-6.504-6-6.504-1.74 0-3.156.672-4.14 1.776v-.72c0-.492-.276-.768-.768-.768h-1.728c-.492 0-.768.276-.768.768V31.8c0 .492.276.768.768.768h1.728c.492 0 .768-.276.768-.768v-6.288c.984 1.104 2.4 1.776 4.14 1.776 3.468 0 6-2.868 6-6.504zm-3.312 0c0 2.028-1.488 3.588-3.396 3.588-1.92 0-3.432-1.56-3.432-3.588 0-2.016 1.512-3.588 3.432-3.588 1.908 0 3.396 1.572 3.396 3.588zM138.362 17.196c.156 0 .324.012.504.036.528.084.84-.108.888-.624l.108-1.392c.036-.444-.144-.804-.588-.888a2.208 2.208 0 00-.492-.048c-1.428 0-2.532.756-3.324 1.812v-.756c0-.492-.276-.768-.768-.768h-1.764c-.492 0-.768.276-.768.768v10.896c0 .492.276.768.768.768h1.764c.492 0 .768-.276.768-.768v-5.82c0-1.932 1.32-3.216 2.904-3.216zM144.194 21.768h9.084c.468 0 .78-.228.828-.696.012-.168.024-.348.024-.504 0-3.468-2.712-6.288-6.516-6.288-3.852 0-6.756 2.868-6.756 6.504 0 3.636 2.82 6.504 7.068 6.504 2.268 0 3.924-.852 5.22-2.088.348-.348.324-.744-.024-1.092l-.588-.588c-.336-.336-.708-.348-1.092-.048-.996.78-2.1 1.188-3.528 1.188-1.992 0-3.432-1.164-3.72-2.892zm3.396-4.86c1.608 0 2.784 1.032 3.144 2.508h-6.456c.444-1.512 1.752-2.508 3.312-2.508zM159.03 21.768h9.084c.468 0 .78-.228.828-.696.012-.168.024-.348.024-.504 0-3.468-2.712-6.288-6.516-6.288-3.852 0-6.756 2.868-6.756 6.504 0 3.636 2.82 6.504 7.068 6.504 2.268 0 3.924-.852 5.22-2.088.348-.348.324-.744-.024-1.092l-.588-.588c-.336-.336-.708-.348-1.092-.048-.996.78-2.1 1.188-3.528 1.188-1.992 0-3.432-1.164-3.72-2.892zm3.396-4.86c1.608 0 2.784 1.032 3.144 2.508h-6.456c.444-1.512 1.752-2.508 3.312-2.508z" fill="#fff"></path>
  <path fill-rule="evenodd" clip-rule="evenodd" d="M0 3a3 3 0 013-3h26a3 3 0 013 3v4.286a3 3 0 01-3 3H3a3 3 0 01-3-3V3zm0 12.857a3 3 0 013-3h26a3 3 0 013 3v4.286a3 3 0 01-3 3H3a3 3 0 01-3-3v-4.286zm3 9.857a3 3 0 00-3 3V33a3 3 0 003 3h12a3 3 0 003-3v-4.286a3 3 0 00-3-3H3z" fill="url(#paint0_linear)"></path>
  <defs>
    <linearGradient id="paint0_linear" x1="0" y1="0" x2="36" y2="36" gradientUnits="userSpaceOnUse">
      <stop stop-color="#EA1330"></stop>
      <stop offset="1" stop-color="#AF041A"></stop>
    </linearGradient>
  </defs>
</svg>